<svg width="141" height="147" viewBox="0 0 141 147" fill="none" xmlns="http://www.w3.org/2000/svg">
<mask id="mask0" mask-type="alpha" maskUnits="userSpaceOnUse" x="0" y="0" width="141" height="141">
<ellipse cx="70.5" cy="70.4647" rx="70.5" ry="70.4647" fill="#C4C4C4"/>
</mask>
<g mask="url(#mask0)">
<ellipse cx="70.5" cy="70.4647" rx="70.5" ry="70.4647" fill="#AC4AEB"/>
<path d="M22.5081 134.748C23.5932 134.439 45.7128 122.288 48.2965 120.287C48.9178 121.116 50.6577 122.523 52.6462 121.53C54.6346 120.536 64.6597 112.835 69.4236 109.108L70.045 106.003C74.6019 107.866 85.3311 111.344 91.7936 110.35C99.8716 109.108 107.95 102.276 109.192 96.6866C110.187 92.2148 109.607 88.6126 109.192 87.3704C113.128 85.9212 120.999 80.5386 120.999 70.6013C120.999 58.1798 111.057 53.8323 106.707 53.2112C103.227 52.7143 107.156 52.4748 105.499 52.4748C105.292 51.8537 102.999 47.9771 101.499 46.4778C100.387 45.3668 94.413 43.8932 93.9988 43.4792C94.9988 39.4814 84.8069 34.0305 74.9988 41.9801C67.5421 47.4456 57.8244 54.2465 53.2676 56.3167L22.8673 73.1518C22.3182 73.5068 -1.22979 86.4167 -3.94268 88.2756C-7.33379 90.5993 -9.46531 92.2452 0.998742 110.35C13.7066 132.337 21.1516 135.136 22.5081 134.748Z" fill="#FFDEDB"/>
<path d="M70 104.948C70 100.95 68 95.9521 67 93.9531L49.5 105.447C49.8333 105.947 50.7 107.546 51.5 109.945C52.3 112.344 52.1667 115.942 52 117.441L47.5 120.44C48.5 121.106 50.7 122.439 51.5 122.439C52.5 122.439 57.5 119.44 63 114.943C68.5 110.445 70 109.945 70 104.948Z" fill="#C5C6FF"/>
<path d="M79.5 49.9734C82.2569 48.0077 87.5 41.9774 96.5 43.9763C103.139 45.4509 105.345 51.2519 105.5 52.9719" stroke="black" stroke-width="2"/>
<path d="M86.3945 57.4102C89.6899 54.4645 99.072 49.7836 110.237 54.6246C124.194 60.676 124.388 80.8471 110.237 86.8985" stroke="black" stroke-width="2"/>
<path d="M102.899 75.8994C107.774 80.6775 114.87 92.963 104.246 103.881C93.6217 114.798 76.9156 109.28 69.8906 105.157" stroke="black" stroke-width="2"/>
<path d="M93.2695 80.024C95.5767 78.2233 101.833 74.6026 108.398 74.5254" stroke="black" stroke-width="2"/>
<path d="M66.9387 94.2026C68.1815 96.0659 69.4508 100.725 69.7767 103.913C70.184 107.898 69.8356 109.101 66.577 111.591C63.3184 114.082 52.8297 121.952 51.4041 122.151C50.2635 122.31 48.2971 120.909 47.8828 119.952" stroke="black" stroke-width="2"/>
<path d="M49.5405 106.002C50.0896 107.196 51.5283 110.775 51.8383 112.943C52.1484 115.112 51.9675 116.945 51.8383 117.591C49.2546 119.591 26.0852 134.123 25 134.433M-4 88.4557C-1.28711 86.5968 22.3195 73.5059 22.8685 73.1509" stroke="black" stroke-width="2"/>
<path d="M52.0078 56.6545C71.1558 46.1881 69.7361 45.7651 75.9983 40.9787C84.4983 34.482 93.9983 39.9793 93.9983 43.4776" stroke="black" stroke-width="2"/>
<path d="M62.0006 62.0549C54.4267 55.1523 45.3962 54.9606 42.6774 55.4399C40.7354 55.5972 32.2875 60.521 28.4034 62.726C24.5194 64.931 19.9556 75.2849 22.4802 86.2141C25.0049 97.1432 36.9484 100.307 39.473 101.362C41.9977 102.416 43.6484 103.854 44.6194 105.1C45.5904 106.347 47.7267 106.347 48.989 105.772C50.2513 105.196 62.0006 96.9515 65.4963 94.9382C68.992 92.925 68.3122 92.158 67.7296 89.3778C67.147 86.5976 68.0209 84.5843 68.3122 82.0917C68.6035 79.5991 69.5746 68.9575 62.0006 62.0549Z" fill="#C5C6FF"/>
<path d="M68 62.9682C66.4 61.7688 63.3333 63.1348 62 63.9677L66.5 72.9633C67.5 72.4635 69.7 71.0642 70.5 69.465C71.5 67.466 70 64.4675 68 62.9682Z" fill="#C5C6FF"/>
<path d="M52.59 90.9979C45.7803 94.9275 37.0799 92.6021 33.1558 85.8088C29.2317 79.0154 31.5671 70.3217 38.3768 66.3921C45.1864 62.4625 53.8869 64.7879 57.811 71.5812C61.7351 78.3745 59.3997 87.0682 52.59 90.9979Z" fill="#E3E3FA" stroke="black" stroke-width="2"/>
<path d="M67.6311 72.1422C70.0783 70.8636 71.0252 67.8442 69.746 65.3981C68.4667 62.9521 65.4458 62.0057 62.9986 63.2843" stroke="black" stroke-width="2"/>
<path d="M44.3779 36.0231L41.556 46.3412" stroke="black" stroke-width="2"/>
<path d="M21.5845 40.9792L27.7127 49.7485" stroke="black" stroke-width="2"/>
<path d="M8.99987 56.3569L19.5864 57.7881" stroke="black" stroke-width="2"/>
<path d="M62.0006 62.0549C54.4267 55.1523 45.3962 54.9606 42.6774 55.4399C40.7354 55.5972 32.2875 60.521 28.4034 62.726C24.5194 64.931 19.9556 75.2849 22.4802 86.2141C25.0049 97.1432 36.5018 100.45 40.5018 101.949C43.0639 102.909 44.6772 104.442 45.6482 105.688C46.6192 106.934 48.7555 106.934 50.0178 106.359C51.2801 105.784 62.0006 96.9515 65.4963 94.9382C68.992 92.925 68.3122 92.158 67.7296 89.3778C67.147 86.5976 68.0209 84.5843 68.3122 82.0917C68.6035 79.5991 69.5746 68.9575 62.0006 62.0549Z" stroke="black" stroke-width="2"/>
</g>
<path d="M85.0055 136.922C83.7128 133.559 79.3236 130.939 76.1825 129.606C74.9094 129.065 73.9564 130.075 74.4823 131.354C75.1178 132.9 75.8632 134.72 76.0767 135.859C76.4563 137.884 73.8064 142.647 77.9162 145.084C82.026 147.521 87.1325 142.455 85.0055 136.922Z" fill="#FFF6ED" stroke="black" stroke-width="2"/>
<path d="M46 6.997C46 9.75629 43.7619 11.994 41 11.994C38.2381 11.994 36 9.75629 36 6.997C36 4.2377 38.2381 2 41 2C43.7619 2 46 4.2377 46 6.997Z" fill="#9FEC7B" stroke="black" stroke-width="2"/>
<path d="M129.201 21.1602C127.52 20.6206 121.929 21.0164 120.912 29.1539C119.896 37.2914 112.676 37.6788 109 36.457" stroke="black" stroke-width="2"/>
</svg>
