<svg width="141" height="141" viewBox="0 0 141 141" fill="none" xmlns="http://www.w3.org/2000/svg">
<mask id="mask0" mask-type="alpha" maskUnits="userSpaceOnUse" x="0" y="0" width="141" height="141">
<ellipse cx="70.1307" cy="70.5" rx="70.1307" ry="70.5" fill="#C4C4C4"/>
</mask>
<g mask="url(#mask0)">
<ellipse cx="70.1307" cy="70.5" rx="70.1307" ry="70.5" fill="#AC4AEB"/>
<path d="M134.288 97C134.288 100.319 131.614 103 128.325 103C125.037 103 122.362 100.319 122.362 97C122.362 93.6813 125.037 91 128.325 91C131.614 91 134.288 93.6813 134.288 97Z" fill="#FFC632" stroke="black" stroke-width="2"/>
<path d="M122.508 184.927C129.647 125.695 123.544 82.5058 122.508 66.464C121.455 50.1716 112.615 45.6761 104.136 46.9101C102.39 45.6355 98.0109 43.417 94.4622 44.7404C91.3841 45.8883 90.6673 46.3255 90.687 46.4369C88.5758 45.3028 83.3773 43.2053 79.0084 43.6616C74.6012 44.1219 71.5438 45.7233 70.566 46.4665C72.4501 47.4015 75.8132 50.2348 76.5758 53.7307C78.3645 61.9298 72.9747 61.4983 70.9953 63.1525C72.2593 63.3443 75.1449 62.8792 76.5758 61.2106C78.3645 59.1249 80.9401 59.2687 82.5857 61.2106C84.2312 63.1525 85.0182 68.0432 81.5125 73.0778C78.9336 76.7812 72.8316 80.6296 70.566 82.4996C71.9015 83.4106 74.5583 85.7073 74.501 87.6061C74.4438 89.5048 71.8538 93.6715 70.566 95.5175C71.5915 95.9011 74.0574 96.4381 75.7173 95.5175C77.7921 94.3668 84.9467 89.6199 86.2345 92.5687C87.5223 95.5175 87.3077 113.858 87.3077 128.674C87.3077 140.526 86.5922 142.675 86.2345 142.267L122.508 184.927Z" fill="#FFDEDB"/>
<path d="M19.3214 184.927C12.1823 125.695 18.2848 82.5058 19.3212 66.464C20.3738 50.1716 29.2139 45.6761 37.6934 46.9101C39.4393 45.6355 43.8182 43.417 47.3669 44.7404C50.445 45.8883 51.1618 46.3255 51.1421 46.4369C53.2533 45.3028 58.4518 43.2053 62.8207 43.6616C67.2279 44.1219 70.2853 45.7233 71.2631 46.4665C73.571 48.7681 77.9109 54.4782 77.1483 57.9741C75.3596 66.1732 68.8544 61.4983 70.8338 63.1525C69.5698 63.3443 66.6842 62.8792 65.2532 61.2106C63.4646 59.1249 60.889 59.2687 59.2434 61.2106C57.5979 63.1525 56.8109 68.0432 60.3166 73.0778C62.8955 76.7812 68.9975 80.6296 71.2631 82.4996C69.9276 83.4106 75.1593 87.0738 75.2165 88.9726C75.2738 90.8713 72.2832 94.151 71.2631 95.5175C70.2376 95.9011 67.7716 96.4381 66.1118 95.5175C64.037 94.3668 56.8824 89.6199 55.5946 92.5687C54.3068 95.5175 54.5214 113.858 54.5214 128.674C54.5214 140.526 55.2369 142.675 55.5946 142.267L19.3214 184.927Z" fill="#FFDEDB"/>
<path d="M50.3916 46.529C54.275 44.345 64.5277 41.9141 71.2491 46.8139C72.6584 47.8412 77.45 51.1819 77.0742 56.8794C76.6984 62.577 68.4306 65.85 64.1088 60.8676C59.7869 55.8853 53.0223 65.4256 60.8204 74.0668C68.6185 82.708 68.2882 80.334 73.1282 84.8921C77.0632 88.5978 72.5645 97.9014 65.7999 95.9073C62.092 94.8143 59.1313 92.014 56.9683 92.014C53.9618 92.014 53.6799 94.4829 53.6799 100.275C53.6799 103.849 51.7069 148.134 56.9683 190.296" stroke="black" stroke-width="2"/>
<path d="M90.6758 46.5214C86.7782 44.3372 77.2214 41.4313 70.4754 46.3314M84.075 188.304C87.3754 157.82 87.3754 103.845 87.3754 100.271C87.3754 94.4786 87.0925 92.0095 84.075 92.0095C81.9042 92.0095 78.9326 94.81 75.2112 95.9031C73.4002 96.435 71.751 96.1631 70.3811 95.4079M70.3811 82.7457C72.9422 80.8403 74.0479 80.8637 80.2088 74.0611C88.0354 65.4193 81.2461 55.8783 76.9085 60.861C75.1509 62.88 72.743 63.5434 70.4754 63.2394" stroke="black" stroke-width="2"/>
<path d="M18.5029 185.234C13.2168 147.639 17.4644 82.5125 18.5029 66.4681C19.5575 50.1732 28.4153 45.6769 36.9116 46.9111C45.4079 48.1453 47.0128 56.5947 46.2576 62.9555C45.5023 69.3163 37.0055 70.9302 35.5899 63.9048C34.683 59.4038 34.6502 58.2628 34.4566 56.5947" stroke="black" stroke-width="2"/>
<path d="M122.508 184.928C129.647 125.696 123.544 82.5068 122.508 66.465C121.455 50.1726 112.615 45.6771 104.136 46.9111C95.6562 48.1451 94.0545 56.5931 94.8082 62.9529C95.562 69.3127 104.042 70.9263 105.455 63.9021C106.36 59.4018 106.267 58.7662 106.586 56.5931" stroke="black" stroke-width="2"/>
<path d="M36.9624 46.8701C39.8778 44.6798 47.7049 42.2992 52.5532 48.7747C57.4016 55.2502 56.9263 73.2485 44.7578 66.5825" stroke="black" stroke-width="2"/>
<path d="M103.949 46.8701C101.058 44.6798 93.2955 42.2992 88.4872 48.7747C83.6789 55.2502 84.1504 73.2485 96.2182 66.5825" stroke="black" stroke-width="2"/>
</g>
</svg>
