<svg width="145" height="141" viewBox="0 0 145 141" fill="none" xmlns="http://www.w3.org/2000/svg">
<mask id="mask0" mask-type="alpha" maskUnits="userSpaceOnUse" x="0" y="0" width="141" height="141">
<ellipse cx="70.1904" cy="70.5" rx="70.1904" ry="70.5" fill="#C4C4C4"/>
</mask>
<g mask="url(#mask0)">
<ellipse cx="70.1904" cy="70.5" rx="70.1904" ry="70.5" fill="#AC4AEB"/>
<path d="M53.0724 27.1676C54.5995 22.5609 59.5042 19.9947 64.1594 21.3666L99.1168 31.669C103.446 32.9449 105.864 37.5476 104.457 41.8362L79.9423 116.568C79.2371 118.718 76.8907 119.855 74.7662 119.077L35.5341 104.712C31.4756 103.226 29.3312 98.785 30.6912 94.6825L53.0724 27.1676Z" fill="white"/>
<path d="M98.9199 31.7789L96.0765 31C96.5743 34 99.3803 34.8085 98.0677 39.5C91.8424 61.7512 77.3219 101.816 73.6753 113C73.5123 113.5 72.1819 115.5 68.6973 117L74.7994 119.145C76.9146 119.889 79.2278 118.749 79.9267 116.618L104.408 41.9882C105.834 37.642 103.331 32.9873 98.9199 31.7789Z" fill="#C5C6FF"/>
<path d="M93.587 30.5L99.6902 32.3862C103.443 33.5459 105.507 37.5652 104.263 41.2906L79.1183 116.614C78.5885 118.202 76.8628 119.049 75.2832 118.497L66.7056 115.5" stroke="black" stroke-width="2"/>
<path d="M54.076 27.3179C55.4139 23.2821 59.6751 20.9978 63.7767 22.1177L91.7913 29.7663C96.7807 31.1286 99.5982 36.4058 97.954 41.3096L74.3685 111.655C73.2885 114.876 69.7516 116.559 66.5708 115.365L35.8044 103.813C32.2847 102.492 30.4375 98.6258 31.6205 95.0571L54.076 27.3179Z" stroke="black" stroke-width="2"/>
<path d="M54.076 27.3179C55.4139 23.2821 59.6751 20.9978 63.7767 22.1177L91.7913 29.7663C96.7807 31.1286 99.5982 36.4058 97.954 41.3096L74.3685 111.655C73.2885 114.876 69.7516 116.559 66.5708 115.365L35.8044 103.813C32.2847 102.492 30.4375 98.6258 31.6205 95.0571L54.076 27.3179Z" stroke="black" stroke-width="2"/>
<path d="M77.6529 67.5C77.6529 74.4077 72.0789 80 65.2122 80C58.3455 80 52.7715 74.4077 52.7715 67.5C52.7715 60.5923 58.3455 55 65.2122 55C72.0789 55 77.6529 60.5923 77.6529 67.5Z" stroke="black" stroke-width="2"/>
<path d="M89.605 70.0008C82.4366 78.8008 84.2951 89.8341 86.6182 95.5007L79.6489 116.001L82.6358 117.001C83.8305 117.401 87.9457 120.001 89.1072 119.501C89.4391 119.834 101.453 132.001 103.046 134.001C105.037 136.501 107.526 136.001 115.989 131.501C124.451 127.001 133.91 114.001 134.905 111.501C135.901 109.001 120.967 98.0007 116.984 93.0007C114.309 89.6421 115.989 90.0007 115.989 85.5007C115.989 81.0007 110.015 72.0007 109.517 70.0008C109.019 68.0009 113.5 56.5008 112.504 50.5008C111.508 44.5008 105.037 44.5008 101.055 46.5008C97.0721 48.5008 98.5655 59.0008 89.605 70.0008Z" fill="#FFDEDB"/>
<path d="M88.4418 98.1545C87.8672 97.1846 87.2482 95.9409 86.6746 94.4983M134.407 109.998C130.923 106.998 116.555 92.6921 115.541 91.6737C114.528 90.6553 115.818 89.2666 115.91 86.2114C116.002 83.1562 114.896 79.2677 111.394 73.8054C107.891 68.343 111.025 64.5471 111.394 61.3994C111.762 58.2516 114.896 46.1233 107.246 45.0123C99.5951 43.9013 98.7655 50.0117 97.7516 52.8818C96.7376 55.7518 97.3828 59.7329 88.4418 71.3982C82.6681 78.9311 84.2735 88.4587 86.6746 94.4983M105.535 136.498C103.765 134.647 92.0938 120.998 89.107 119.498C86.1201 117.998 84.4598 117.578 82.5426 116.763C80.6253 115.949 80.3923 115.183 80.1465 114.998L86.6746 94.4983" stroke="black" stroke-width="2"/>
<path d="M30.8638 42.5003C33.6515 37.3003 44.6364 38.6669 49.7803 40.0003L46.7935 48.5002L48.7847 50.5002C49.2825 51.0002 50.2781 53.5002 48.7847 56.5002C47.59 58.9002 44.3045 61.1669 42.8111 62.0002C43.6407 63.0002 45.2005 65.7002 44.8023 68.5002C44.404 71.3002 40.6539 73.3336 38.8286 74.0002L35.344 83.0002C32.855 83.3336 26.284 83.5002 19.9121 81.5002C11.9472 79.0002 15.4318 74.0002 16.4274 71.5002C17.423 69.0002 20.4099 70.0002 24.3923 71.5002C27.5783 72.7002 31.0297 72.3336 32.3572 72.0002C30.2 70.0002 25.7862 64.9002 25.3879 60.5002C24.9897 56.1002 28.8726 53.3336 30.8638 52.5002C29.7022 51.3336 28.0761 47.7003 30.8638 42.5003Z" fill="#FFDEDB"/>
<path d="M41.2481 45.1976C51.2031 49.549 50.1892 54.8262 47.4239 58.4369C41.0633 66.7421 26.8686 51.5858 29.0809 45.1976C31.9344 36.9578 44.1885 38.9553 49.7805 40.4983L47.2915 47.9983" stroke="black" stroke-width="2"/>
<path d="M30.9235 52.9766C28.2197 53.8098 23.3282 56.9576 25.393 62.8829C27.9739 70.2894 38.6663 77.8812 43.5516 70.7523C47.4598 65.0493 42.9064 61.525 40.1411 60.4757" stroke="black" stroke-width="2"/>
<path d="M32.9508 72.0481C31.9983 72.4185 29.1716 72.8444 25.4846 71.5852C20.8758 70.0113 17.5575 68.2523 15.4374 73.1591C13.3174 78.066 17.8174 81.1325 23.3954 83C27.8756 84.5 33.6221 84.1543 35.3428 84L38.8274 74" stroke="black" stroke-width="2"/>
</g>
<rect x="1.09125" y="0.898602" width="16.7536" height="7.25235" rx="3.62617" transform="matrix(0.995305 -0.0967848 0.0959445 0.995387 125.366 69.9262)" fill="#77CAF9" stroke="black" stroke-width="2"/>
<path d="M44.7979 8C44.7979 10.2133 43.0127 12 40.8198 12C38.627 12 36.8418 10.2133 36.8418 8C36.8418 5.78671 38.627 4 40.8198 4C43.0127 4 44.7979 5.78671 44.7979 8Z" fill="#FFC632" stroke="black" stroke-width="2"/>
<path d="M13.1973 89.6133C11.1332 93.184 12.3418 97.7594 15.8969 99.8326C17.3373 100.673 18.942 100.973 20.4785 100.796" stroke="black" stroke-width="2"/>
<path d="M16.9119 110.852C15.0463 107.172 16.5034 102.671 20.1665 100.797" stroke="black" stroke-width="2"/>
</svg>
