<svg width="111" height="111" viewBox="0 0 111 111" fill="none" xmlns="http://www.w3.org/2000/svg">
<circle cx="55.5" cy="55.5" r="55.5" fill="#EFEFEF"/>
<path d="M81.8702 73.7763C77.7313 69.5831 72.8049 66.4789 67.43 64.5998C73.1867 60.5827 76.9688 53.8598 76.9688 46.2578C76.9688 33.9849 67.1135 24 55 24C42.8865 24 33.0312 33.9849 33.0312 46.2578C33.0312 53.8598 36.8133 60.5827 42.5701 64.5998C37.1952 66.4789 32.2689 69.5831 28.13 73.7763C20.9527 81.0481 17 90.7163 17 101H22.9375C22.9375 83.088 37.3206 68.5156 55 68.5156C72.6794 68.5156 87.0625 83.088 87.0625 101H93C93 90.7163 89.0473 81.0481 81.8702 73.7763ZM55 62.5C46.1604 62.5 38.9688 55.2139 38.9688 46.2578C38.9688 37.3018 46.1604 30.0156 55 30.0156C63.8396 30.0156 71.0312 37.3018 71.0312 46.2578C71.0312 55.2139 63.8396 62.5 55 62.5Z" fill="#FAFAFA"/>
<path d="M19.7787 52.7998C19.7787 52.4222 19.6404 52.1227 19.3637 51.9014C19.0902 51.6768 18.7045 51.5645 18.2064 51.5645C17.7898 51.5645 17.4398 51.68 17.1566 51.9111C16.8767 52.139 16.7367 52.4222 16.7367 52.7607H15.7992C15.7992 52.3831 15.9018 52.0446 16.1068 51.7451C16.3152 51.4456 16.6049 51.2129 16.976 51.0469C17.3471 50.8776 17.7572 50.793 18.2064 50.793C19.0007 50.793 19.6176 50.972 20.057 51.3301C20.4965 51.6849 20.7162 52.1797 20.7162 52.8145C20.7162 53.1432 20.6153 53.4427 20.4135 53.7129C20.2117 53.9831 19.9301 54.1963 19.5687 54.3525C20.4053 54.6325 20.8236 55.1875 20.8236 56.0176C20.8236 56.6556 20.586 57.1618 20.1107 57.5361C19.6355 57.9105 19.0007 58.0977 18.2064 58.0977C17.7344 58.0977 17.3048 58.0146 16.9174 57.8486C16.5333 57.6794 16.2338 57.4401 16.0189 57.1309C15.8041 56.8216 15.6967 56.4538 15.6967 56.0273H16.6342C16.6342 56.4017 16.7823 56.7142 17.0785 56.9648C17.3747 57.2122 17.7507 57.3359 18.2064 57.3359C18.7175 57.3359 19.1244 57.2171 19.4271 56.9795C19.7331 56.7419 19.8861 56.4277 19.8861 56.0371C19.8861 55.2038 19.3702 54.779 18.3383 54.7627H17.4594V53.9912H18.3334C18.8087 53.9814 19.1684 53.874 19.4125 53.6689C19.6566 53.4639 19.7787 53.1742 19.7787 52.7998ZM25.7889 58C25.7368 57.8958 25.6945 57.7103 25.6619 57.4434C25.242 57.8796 24.7407 58.0977 24.158 58.0977C23.6372 58.0977 23.2091 57.9512 22.8738 57.6582C22.5418 57.362 22.3758 56.9876 22.3758 56.5352C22.3758 55.985 22.5841 55.5586 23.0008 55.2559C23.4207 54.9499 24.0099 54.7969 24.7684 54.7969H25.6473V54.3818C25.6473 54.0661 25.5529 53.8154 25.3641 53.6299C25.1753 53.4411 24.8969 53.3467 24.5291 53.3467C24.2068 53.3467 23.9367 53.4281 23.7186 53.5908C23.5005 53.7536 23.3914 53.9505 23.3914 54.1816H22.4832C22.4832 53.918 22.576 53.6641 22.7615 53.4199C22.9503 53.1725 23.2042 52.9772 23.5232 52.834C23.8455 52.6908 24.1987 52.6191 24.5828 52.6191C25.1915 52.6191 25.6684 52.7721 26.0135 53.0781C26.3585 53.3809 26.5376 53.7992 26.5506 54.333V56.7646C26.5506 57.2497 26.6124 57.6354 26.7361 57.9219V58H25.7889ZM24.2898 57.3115C24.573 57.3115 24.8416 57.2383 25.0955 57.0918C25.3494 56.9453 25.5333 56.7549 25.6473 56.5205V55.4365H24.9393C23.8325 55.4365 23.2791 55.7604 23.2791 56.4082C23.2791 56.6914 23.3735 56.9128 23.5623 57.0723C23.7511 57.2318 23.9936 57.3115 24.2898 57.3115ZM31.9797 53.4639H29.5432V58H28.635V52.7168H31.9797V53.4639ZM37.8287 55.417C37.8287 56.221 37.6448 56.8688 37.277 57.3604C36.9091 57.8519 36.4111 58.0977 35.7828 58.0977C35.1415 58.0977 34.637 57.8942 34.2691 57.4873V60.0312H33.3658V52.7168H34.191L34.235 53.3027C34.6028 52.847 35.1139 52.6191 35.7682 52.6191C36.4029 52.6191 36.9042 52.8584 37.2721 53.3369C37.6432 53.8154 37.8287 54.4811 37.8287 55.334V55.417ZM36.9254 55.3145C36.9254 54.7188 36.7984 54.2484 36.5445 53.9033C36.2906 53.5583 35.9423 53.3857 35.4996 53.3857C34.9527 53.3857 34.5426 53.6283 34.2691 54.1133V56.6377C34.5393 57.1195 34.9527 57.3604 35.5094 57.3604C35.9423 57.3604 36.2857 57.1895 36.5396 56.8477C36.7968 56.5026 36.9254 55.9915 36.9254 55.3145ZM41.251 56.6768L42.4814 52.7168H43.4482L41.3242 58.8154C40.9954 59.6943 40.473 60.1338 39.7568 60.1338L39.5859 60.1191L39.249 60.0557V59.3232L39.4932 59.3428C39.7992 59.3428 40.0368 59.2809 40.2061 59.1572C40.3786 59.0335 40.5202 58.8073 40.6309 58.4785L40.8311 57.9414L38.9463 52.7168H39.9326L41.251 56.6768ZM47.7641 54.1621C47.7641 53.9147 47.6697 53.7194 47.4809 53.5762C47.2921 53.4297 47.0333 53.3564 46.7045 53.3564C46.3855 53.3564 46.1186 53.4395 45.9037 53.6055C45.6921 53.7715 45.5863 53.9668 45.5863 54.1914H44.6879C44.6879 53.7324 44.8799 53.3564 45.2641 53.0635C45.6482 52.7705 46.1283 52.624 46.7045 52.624C47.323 52.624 47.8048 52.7575 48.1498 53.0244C48.4949 53.2881 48.6674 53.6657 48.6674 54.1572C48.6674 54.3949 48.5958 54.613 48.4525 54.8115C48.3093 55.0101 48.1059 55.168 47.8422 55.2852C48.4574 55.4935 48.765 55.9036 48.765 56.5156C48.765 57.0007 48.5779 57.3848 48.2035 57.668C47.8292 57.9512 47.3295 58.0928 46.7045 58.0928C46.0958 58.0928 45.5928 57.9447 45.1957 57.6484C44.8018 57.349 44.6049 56.9453 44.6049 56.4375H45.5033C45.5033 56.6947 45.6173 56.916 45.8451 57.1016C46.0762 57.2839 46.3627 57.375 46.7045 57.375C47.0495 57.375 47.3279 57.2952 47.5395 57.1357C47.751 56.9762 47.8568 56.7695 47.8568 56.5156C47.8568 56.2194 47.7673 56.0078 47.5883 55.8809C47.4125 55.7507 47.1374 55.6855 46.7631 55.6855H45.8598V54.9238H46.8412C47.4564 54.9076 47.7641 54.6536 47.7641 54.1621ZM53.9549 52.7168H54.8582V58H53.9549V54.1475L51.5184 58H50.615V52.7168H51.5184V56.5742L53.9549 52.7168ZM60.8342 53.4492H59.0617V58H58.1584V53.4492H56.4201V52.7168H60.8342V53.4492ZM63.2994 54.5381H64.6715C65.2704 54.5446 65.7441 54.7008 66.0924 55.0068C66.4407 55.3128 66.6148 55.7279 66.6148 56.252C66.6148 56.7793 66.4358 57.2025 66.0777 57.5215C65.7197 57.8405 65.2379 58 64.6324 58H62.3961V52.7168H63.2994V54.5381ZM63.2994 55.2754V57.2627H64.6422C64.9807 57.2627 65.2428 57.1764 65.4283 57.0039C65.6139 56.8281 65.7066 56.5889 65.7066 56.2861C65.7066 55.9932 65.6155 55.7539 65.4332 55.5684C65.2542 55.3796 65.0019 55.2819 64.6764 55.2754H63.2994ZM71.2279 55.4561C71.2279 54.5739 71.3988 53.8805 71.7406 53.376C72.0824 52.8714 72.5512 52.6191 73.1469 52.6191C73.4236 52.6191 73.6661 52.6663 73.8744 52.7607V50.5H74.7777V52.79C75.0056 52.6761 75.2725 52.6191 75.5785 52.6191C76.1775 52.6191 76.6479 52.8714 76.9896 53.376C77.3314 53.8805 77.5023 54.6081 77.5023 55.5586C77.5023 56.3366 77.3314 56.9551 76.9896 57.4141C76.6511 57.873 76.184 58.1025 75.5883 58.1025C75.2725 58.1025 75.0023 58.0505 74.7777 57.9463V60.0312H73.8744V57.9609C73.6596 58.0553 73.4138 58.1025 73.1371 58.1025C72.5447 58.1025 72.0775 57.873 71.7357 57.4141C71.3972 56.9551 71.2279 56.3268 71.2279 55.5293V55.4561ZM76.599 55.4561C76.599 54.792 76.4851 54.2777 76.2572 53.9131C76.0294 53.5452 75.7152 53.3613 75.3148 53.3613C75.1098 53.3613 74.9307 53.3939 74.7777 53.459V57.2822C74.9242 57.3376 75.1065 57.3652 75.3246 57.3652C75.7283 57.3652 76.0408 57.209 76.2621 56.8965C76.4867 56.584 76.599 56.1038 76.599 55.4561ZM72.1312 55.5586C72.1312 56.151 72.237 56.6003 72.4486 56.9062C72.6602 57.2122 72.9646 57.3652 73.3617 57.3652C73.5505 57.3652 73.7214 57.3359 73.8744 57.2773V53.4443C73.7377 53.389 73.5701 53.3613 73.3715 53.3613C72.9743 53.3613 72.6684 53.5387 72.4535 53.8936C72.2387 54.2484 72.1312 54.8034 72.1312 55.5586ZM79.0398 55.3096C79.0398 54.792 79.1408 54.3265 79.3426 53.9131C79.5477 53.4997 79.8309 53.1807 80.1922 52.9561C80.5568 52.7314 80.9718 52.6191 81.4373 52.6191C82.1567 52.6191 82.7378 52.8682 83.1805 53.3662C83.6264 53.8643 83.8494 54.5267 83.8494 55.3535V55.417C83.8494 55.9313 83.7501 56.3936 83.5516 56.8037C83.3562 57.2106 83.0747 57.528 82.7068 57.7559C82.3422 57.9837 81.9223 58.0977 81.4471 58.0977C80.7309 58.0977 80.1499 57.8486 79.7039 57.3506C79.2612 56.8525 79.0398 56.1934 79.0398 55.373V55.3096ZM79.948 55.417C79.948 56.0029 80.0831 56.4733 80.3533 56.8281C80.6268 57.1829 80.9913 57.3604 81.4471 57.3604C81.9061 57.3604 82.2706 57.1813 82.5408 56.8232C82.811 56.4619 82.9461 55.9574 82.9461 55.3096C82.9461 54.7301 82.8077 54.2614 82.5311 53.9033C82.2576 53.542 81.893 53.3613 81.4373 53.3613C80.9913 53.3613 80.6316 53.5387 80.3582 53.8936C80.0848 54.2484 79.948 54.7562 79.948 55.417ZM89.4006 53.4492H87.6281V58H86.7248V53.4492H84.9865V52.7168H89.4006V53.4492ZM90.4352 55.3096C90.4352 54.792 90.5361 54.3265 90.7379 53.9131C90.943 53.4997 91.2262 53.1807 91.5875 52.9561C91.9521 52.7314 92.3671 52.6191 92.8326 52.6191C93.552 52.6191 94.1331 52.8682 94.5758 53.3662C95.0217 53.8643 95.2447 54.5267 95.2447 55.3535V55.417C95.2447 55.9313 95.1454 56.3936 94.9469 56.8037C94.7516 57.2106 94.47 57.528 94.1021 57.7559C93.7376 57.9837 93.3176 58.0977 92.8424 58.0977C92.1262 58.0977 91.5452 57.8486 91.0992 57.3506C90.6565 56.8525 90.4352 56.1934 90.4352 55.373V55.3096ZM91.3434 55.417C91.3434 56.0029 91.4785 56.4733 91.7486 56.8281C92.0221 57.1829 92.3867 57.3604 92.8424 57.3604C93.3014 57.3604 93.666 57.1813 93.9361 56.8232C94.2063 56.4619 94.3414 55.9574 94.3414 55.3096C94.3414 54.7301 94.2031 54.2614 93.9264 53.9033C93.6529 53.542 93.2883 53.3613 92.8326 53.3613C92.3867 53.3613 92.027 53.5387 91.7535 53.8936C91.4801 54.2484 91.3434 54.7562 91.3434 55.417Z" fill="black" fill-opacity="0.3"/>
</svg>
