<svg width="120" height="19" viewBox="0 0 120 19" fill="none" xmlns="http://www.w3.org/2000/svg">
<path d="M11.8964 6.8304C11.8964 10.0197 9.37769 12.6052 6.27069 12.6052C3.16373 12.6052 0.64502 10.0197 0.64502 6.8304C0.64502 3.6411 3.16373 1.05566 6.27069 1.05566C9.37769 1.05566 11.8964 3.6411 11.8964 6.8304Z" fill="black"/>
<path d="M35.2568 6.8304C35.2568 10.0197 32.7382 12.6052 29.6312 12.6052C26.5241 12.6052 24.0054 10.0197 24.0054 6.8304C24.0054 3.6411 26.5241 1.05566 29.6312 1.05566C32.7382 1.05566 35.2568 3.6411 35.2568 6.8304Z" fill="black"/>
<path d="M17.9466 16.9191C18.62 16.9195 19.288 16.8177 19.9292 16.6184C19.9892 16.5997 20.049 16.5802 20.1086 16.5598C20.1546 16.5441 20.2014 16.5322 20.2483 16.5243C20.6152 16.4621 20.9947 16.6343 21.1545 16.9873C21.3349 17.3855 21.1675 17.8622 20.7645 18.0097C20.7093 18.03 20.6539 18.0496 20.5983 18.0686C20.5031 18.1012 20.4073 18.132 20.311 18.161C19.5449 18.392 18.7485 18.5099 17.9457 18.5095C17.1429 18.509 16.3466 18.39 15.5808 18.1581C15.4846 18.129 15.3888 18.098 15.2936 18.0654C15.2381 18.0463 15.1827 18.0266 15.1275 18.0063C14.7247 17.8583 14.5578 17.3814 14.7386 16.9834C14.8989 16.6305 15.2786 16.4588 15.6454 16.5215C15.6923 16.5295 15.7391 16.5414 15.7851 16.5572C15.8446 16.5776 15.9044 16.5972 15.9644 16.6159C16.6054 16.816 17.2732 16.9187 17.9466 16.9191Z" fill="black"/>
<path d="M118.07 0.233887C118.393 0.233887 118.684 0.314442 118.945 0.475553C119.205 0.636665 119.413 0.851479 119.569 1.12C119.725 1.38852 119.803 1.68926 119.803 2.02222C119.803 2.35518 119.725 2.65861 119.569 2.9325C119.413 3.20102 119.205 3.41583 118.945 3.57694C118.684 3.73805 118.393 3.81861 118.07 3.81861C117.747 3.81861 117.453 3.73805 117.188 3.57694C116.928 3.41583 116.719 3.20102 116.563 2.9325C116.407 2.65861 116.329 2.35518 116.329 2.02222C116.329 1.68926 116.407 1.38852 116.563 1.12C116.719 0.851479 116.928 0.636665 117.188 0.475553C117.453 0.314442 117.747 0.233887 118.07 0.233887ZM118.07 0.483609C117.799 0.483609 117.552 0.553424 117.328 0.693053C117.105 0.832683 116.925 1.02065 116.79 1.25694C116.66 1.48787 116.595 1.74296 116.595 2.02222C116.595 2.30685 116.66 2.56463 116.79 2.79555C116.925 3.02648 117.105 3.21176 117.328 3.35139C117.552 3.48565 117.799 3.55278 118.07 3.55278C118.341 3.55278 118.588 3.48565 118.812 3.35139C119.036 3.21176 119.213 3.02648 119.343 2.79555C119.478 2.56463 119.546 2.30685 119.546 2.02222C119.546 1.74296 119.478 1.48787 119.343 1.25694C119.213 1.02065 119.036 0.832683 118.812 0.693053C118.588 0.553424 118.341 0.483609 118.07 0.483609ZM118.14 0.966942C118.421 0.966942 118.624 1.00991 118.749 1.09583C118.879 1.17639 118.945 1.33213 118.945 1.56305C118.945 1.71342 118.911 1.83157 118.843 1.9175C118.775 1.99805 118.658 2.04907 118.492 2.07055V2.08666C118.554 2.09741 118.614 2.12694 118.671 2.17528C118.729 2.21824 118.77 2.29074 118.796 2.39278L119.023 3.03722H118.656L118.453 2.40889C118.401 2.26926 118.297 2.19944 118.14 2.19944C118.036 2.19944 117.943 2.19944 117.859 2.19944C117.776 2.19944 117.703 2.19944 117.641 2.19944V3.03722H117.289V0.991109C117.425 0.980368 117.55 0.974998 117.664 0.974998C117.784 0.969628 117.943 0.966942 118.14 0.966942ZM118.133 1.24083C118.034 1.24083 117.943 1.24083 117.859 1.24083C117.776 1.24083 117.703 1.24083 117.641 1.24083V1.94972H118.133C118.304 1.94972 118.424 1.92555 118.492 1.87722C118.559 1.82352 118.593 1.72953 118.593 1.59528C118.593 1.45028 118.559 1.35629 118.492 1.31333C118.424 1.265 118.304 1.24083 118.133 1.24083Z" fill="black"/>
<path fill-rule="evenodd" clip-rule="evenodd" d="M53.8099 0.298333C52.4514 0.266111 51.1398 0.25 49.8751 0.25C48.8445 0.25 48.0092 0.556111 47.369 1.16833C46.7288 1.78056 46.4087 2.59417 46.4087 3.60917V13.7108C46.4087 14.7258 46.721 15.5394 47.3456 16.1517C47.9857 16.7478 48.8289 17.0458 49.8751 17.0458C51.1398 17.0458 52.4514 17.0378 53.8099 17.0217C55.1683 17.0056 56.4097 16.9411 57.5339 16.8283L57.37 14.1458H51.1633C50.3825 14.1458 49.9922 13.735 49.9922 12.9133V9.62667H56.48V7.01667H49.9922V4.40667C49.9922 3.585 50.3825 3.17417 51.1633 3.17417H57.37L57.5339 0.491667C56.4097 0.378889 55.1683 0.314445 53.8099 0.298333ZM75.1961 6.31583C75.1805 5.47806 74.7823 5.05917 74.0016 5.05917H70.8865C70.1527 5.05917 69.7155 5.43778 69.5749 6.195L68.076 11.4633C67.9979 11.7533 67.9354 12.0433 67.8886 12.3333C67.8574 12.6233 67.8105 12.9214 67.7481 13.2275H67.4904C67.4436 12.9214 67.3967 12.6314 67.3499 12.3575C67.3031 12.0675 67.2406 11.7694 67.1625 11.4633L65.6401 6.195C65.5152 5.43778 65.0858 5.05917 64.3519 5.05917H61.3071C60.4952 5.05917 60.0892 5.47806 60.0892 6.31583L59.7379 16.9975H62.8764L63.1574 7.69333H63.4853L65.4293 14.3633C65.5855 15.1044 66.0305 15.475 66.7644 15.475H68.4976C69.2158 15.475 69.653 15.1044 69.8092 14.3633L71.7532 7.69333H72.081L72.4324 16.9975H75.5709L75.1961 6.31583ZM83.7023 4.745C85.6697 4.745 87.075 5.09139 87.9182 5.78417C88.7614 6.47694 89.1907 7.49194 89.2064 8.82917C89.2064 9.90861 88.9331 10.7222 88.3866 11.27C87.8557 11.8178 86.9189 12.0917 85.576 12.0917H81.4304C81.5397 13.0261 81.8052 13.6544 82.2267 13.9767C82.6483 14.2989 83.3119 14.46 84.2176 14.46C84.7641 14.46 85.4277 14.4439 86.2084 14.4117C87.0047 14.3633 87.8011 14.2908 88.5974 14.1942L88.9019 16.3933C88.2305 16.7317 87.4263 16.9653 86.4895 17.0942C85.5682 17.2231 84.6782 17.2875 83.8194 17.2875C81.6178 17.2875 80.0563 16.7881 79.1351 15.7892C78.2295 14.7903 77.7767 13.2114 77.7767 11.0525C77.7767 9.48972 77.9718 8.24917 78.3622 7.33083C78.7682 6.4125 79.4005 5.75194 80.2593 5.34917C81.1337 4.94639 82.2814 4.745 83.7023 4.745ZM102.404 16.9975V5.05917H96.1035C95.1198 5.05917 94.3781 5.30889 93.8784 5.80833C93.3944 6.30778 93.1055 7.04083 93.0118 8.0075C92.9338 9.0225 92.8323 10.0053 92.7074 10.9558C92.5981 11.8903 92.4497 12.6314 92.2624 13.1792C92.1218 13.6464 91.8876 13.9525 91.5597 14.0975C91.2474 14.2425 90.818 14.3714 90.2715 14.4842L90.6228 17.1183C91.3879 17.215 92.0906 17.1828 92.7308 17.0217C93.3866 16.8767 93.9409 16.5786 94.3937 16.1275C94.8621 15.6603 95.1822 14.9997 95.354 14.1458C95.5258 13.4853 95.6741 12.6556 95.799 11.6567C95.9395 10.6578 96.0723 9.66694 96.1972 8.68417C96.244 8.26528 96.3611 7.96722 96.5485 7.79C96.7359 7.61278 97.0247 7.52417 97.4151 7.52417H98.9609V16.9975H102.404ZM110.058 4.84167C111.042 4.84167 111.854 4.84972 112.494 4.86583C113.15 4.86583 113.72 4.88194 114.204 4.91417C114.688 4.93028 115.172 4.9625 115.656 5.01083V16.9975H112.283V12.9133H111.323H110.245C109.402 12.9133 108.918 13.2114 108.793 13.8075L108.02 16.9975H104.484L105.444 13.3C105.538 12.9617 105.709 12.6958 105.959 12.5025C106.225 12.3092 106.514 12.1722 106.826 12.0917C107.138 12.0111 107.419 11.9547 107.669 11.9225V11.8258C106.685 11.6486 106.006 11.2619 105.631 10.6658C105.272 10.0697 105.093 9.36889 105.093 8.56333C105.093 7.66111 105.233 6.93611 105.514 6.38833C105.795 5.84056 106.295 5.44583 107.013 5.20417C107.732 4.9625 108.746 4.84167 110.058 4.84167ZM85.7439 8.43981C85.7439 9.40377 84.9866 10.1852 84.0523 10.1852C83.1181 10.1852 82.3608 9.40377 82.3608 8.43981C82.3608 7.47586 83.1181 6.69444 84.0523 6.69444C84.9866 6.69444 85.7439 7.47586 85.7439 8.43981ZM109.816 10.1852C110.75 10.1852 111.508 9.40377 111.508 8.43981C111.508 7.47586 110.75 6.69444 109.816 6.69444C108.882 6.69444 108.124 7.47586 108.124 8.43981C108.124 9.40377 108.882 10.1852 109.816 10.1852Z" fill="black"/>
</svg>
