<svg width="276" height="184" viewBox="0 0 276 184" fill="none" xmlns="http://www.w3.org/2000/svg">
<rect width="276" height="184" rx="6" fill="white"/>
<path d="M123.433 62.5518C123.433 59.2855 122.15 56.1484 119.858 53.8067C123.362 52.3856 127.383 53.1711 130.085 55.8056L132.303 53.5584C128.241 49.5943 122.011 48.8212 117.092 51.6694C113.176 49.4083 108.342 49.3991 104.417 51.6455C100.492 53.8927 98.0761 58.052 98.0823 62.5518V68.8476H91.7445C90.8695 68.8476 90.16 69.5523 90.16 70.4215V123.936C90.16 124.805 90.8695 125.51 91.7445 125.51H125.018V122.362H106.004V71.9955H110.758V78.2913H113.927V71.9955H125.018V68.8476H123.433V62.5518ZM99.4006 113.618C99.0896 113.206 98.6014 112.963 98.0823 112.963C97.5631 112.963 97.075 113.206 96.7639 113.618L93.3289 118.742V75.6153L96.7639 80.7337C97.0579 81.1717 97.5523 81.4346 98.0823 81.4346C98.6122 81.4346 99.1066 81.1717 99.4006 80.7337L102.836 75.6153V118.742L99.4006 113.618ZM101.46 122.362H94.7045L98.0823 117.325L101.46 122.362ZM98.0823 77.0324L94.7045 71.9955H101.46L98.0823 77.0324ZM101.251 68.8476V62.5518C101.247 59.4085 102.82 56.4696 105.446 54.7143C108.071 52.9597 111.404 52.6193 114.334 53.8067C112.041 56.1484 110.758 59.2855 110.758 62.5518V68.8476H101.251ZM113.927 62.5518C113.928 59.8711 115.081 57.3181 117.096 55.5335C119.11 57.3181 120.263 59.8711 120.264 62.5518V68.8476H113.927V62.5518Z" fill="#EFEFEF"/>
<path d="M140.704 52.2373C140.81 52.0183 140.865 51.7777 140.862 51.5341V40.5165H147.2V51.5341C147.198 51.7777 147.252 52.0183 147.359 52.2373L156.865 71.1247L159.702 69.7183L150.369 51.1629V32.6467C150.369 31.7775 149.66 31.0728 148.785 31.0728H139.278C138.403 31.0728 137.693 31.7775 137.693 32.6467V51.1629L128.353 69.7183C128.243 69.9366 128.187 70.1771 128.187 70.4215V123.936C128.187 124.805 128.896 125.51 129.771 125.51H140.862V122.362H131.356V70.7927L140.704 52.2373ZM147.2 34.2207V37.3686H140.862V34.2207H147.2Z" fill="#EFEFEF"/>
<path d="M185.003 91.6501L178.889 81.0213V75.1428C178.889 74.2736 178.179 73.5688 177.304 73.5688H151.953C151.078 73.5688 150.369 74.2736 150.369 75.1428V81.0213L144.24 91.6693C144.101 91.9083 144.029 92.1804 144.031 92.4563V123.935C144.031 124.804 144.74 125.509 145.615 125.509H183.642C184.517 125.509 185.226 124.804 185.226 123.935V92.4563C185.227 92.1727 185.15 91.8937 185.003 91.6501ZM180.912 90.8823H173.697L177.304 84.6119L180.912 90.8823ZM153.538 76.7168H175.72V79.8647H153.538V76.7168ZM152.872 83.0126H174.579L170.047 90.8823H148.341L152.872 83.0126ZM169.382 122.361H147.2V94.0302H169.382V122.361ZM182.058 122.361H172.551V94.0302H182.058V122.361Z" fill="#EFEFEF"/>
<rect x="11.04" y="10.3577" width="71.1467" height="14.0132" rx="6" fill="#EFEFEF"/>
<rect x="10.4266" y="156.583" width="126.96" height="10.9669" rx="5.48344" fill="#EFEFEF"/>
<path d="M261.51 24.7518L256.68 21.3247L251.85 24.7518V13.7849C251.85 13.4213 251.995 13.0727 252.254 12.8156C252.513 12.5585 252.864 12.4141 253.23 12.4141H260.13C260.496 12.4141 260.847 12.5585 261.106 12.8156C261.365 13.0727 261.51 13.4213 261.51 13.7849V24.7518Z" fill="#EFEFEF"/>
</svg>
