


<svg width="84" height="84" viewBox="0 0 84 84" fill="none" xmlns="http://www.w3.org/2000/svg">
<path d="M29.6148 28.2387C29.6148 25.383 28.5001 22.6401 26.5091 20.5927C29.553 19.3503 33.0451 20.0371 35.3922 22.3405L37.3186 20.3757C33.7903 16.9099 28.3798 16.2339 24.1076 18.7241C20.7063 16.7472 16.5073 16.7392 13.0986 18.7033C9.68981 20.668 7.59135 24.3045 7.59672 28.2387V33.7433H2.0922C1.33223 33.7433 0.716064 34.3594 0.716064 35.1194V81.9079C0.716064 82.6678 1.33223 83.284 2.0922 83.284H30.991V80.5317H14.4774V36.4955H18.6058V42.0001H21.358V36.4955H30.991V33.7433H29.6148V28.2387ZM8.74171 72.8871C8.47159 72.5262 8.04759 72.3139 7.59672 72.3139C7.14585 72.3139 6.72186 72.5262 6.45174 72.8871L3.46833 77.3669V39.6604L6.45174 44.1355C6.70708 44.5185 7.13645 44.7483 7.59672 44.7483C8.057 44.7483 8.48637 44.5185 8.74171 44.1355L11.7251 39.6604V77.3669L8.74171 72.8871ZM10.5304 80.5317H4.66304L7.59672 76.1278L10.5304 80.5317ZM7.59672 40.8994L4.66304 36.4955H10.5304L7.59672 40.8994ZM10.349 33.7433V28.2387C10.3456 25.4905 11.7117 22.921 13.9922 21.3863C16.2721 19.8523 19.1668 19.5546 21.7115 20.5927C19.7205 22.6401 18.6058 25.383 18.6058 28.2387V33.7433H10.349ZM21.358 28.2387C21.3594 25.895 22.3606 23.6628 24.1103 22.1026C25.86 23.6628 26.8612 25.895 26.8626 28.2387V33.7433H21.358V28.2387Z" fill="#AC4AEB" fill-opacity="0.3"/>
<path d="M44.6145 19.2204C44.7072 19.0289 44.7542 18.8185 44.7522 18.6055V8.97261H50.2567V18.6055C50.2547 18.8185 50.3018 19.0289 50.3945 19.2204L58.6513 35.7339L61.1146 34.5043L53.009 18.281V2.09195C53.009 1.33199 52.3928 0.71582 51.6329 0.71582H43.3761C42.6161 0.71582 42 1.33199 42 2.09195V18.281L33.8876 34.5043C33.7922 34.6951 33.7432 34.9054 33.7432 35.1191V81.9076C33.7432 82.6675 34.3593 83.2837 35.1193 83.2837H44.7522V80.5315H36.4954V35.4437L44.6145 19.2204ZM50.2567 3.46808V6.22035H44.7522V3.46808H50.2567Z" fill="#AC4AEB" fill-opacity="0.3"/>
<path d="M83.0896 53.6798L77.7793 44.3869V39.2472C77.7793 38.4873 77.1631 37.8711 76.4032 37.8711H54.3851C53.6251 37.8711 53.0089 38.4873 53.0089 39.2472V44.3869L47.6858 53.6966C47.5656 53.9056 47.5031 54.1434 47.5044 54.3847V81.9073C47.5044 82.6673 48.1206 83.2834 48.8805 83.2834H81.9077C82.6677 83.2834 83.2838 82.6673 83.2838 81.9073V54.3847C83.2845 54.1367 83.2173 53.8928 83.0896 53.6798ZM79.5364 53.0085H73.2699L76.4032 47.5262L79.5364 53.0085ZM55.7612 40.6234H75.027V43.3756H55.7612V40.6234ZM55.1833 46.1279H74.0359L70.1004 53.0085H51.2478L55.1833 46.1279ZM69.5225 80.5312H50.2567V55.7608H69.5225V80.5312ZM80.5316 80.5312H72.2748V55.7608H80.5316V80.5312Z" fill="#AC4AEB" fill-opacity="0.3"/>
</svg>
