<svg width="248" height="333" viewBox="0 0 248 333" fill="none" xmlns="http://www.w3.org/2000/svg">
<path d="M9 17C13.4183 17 17 13.4183 17 9C17 4.58172 13.4183 1 9 1C4.58172 1 1 4.58172 1 9C1 13.4183 4.58172 17 9 17Z" stroke="black" stroke-opacity="0.5" stroke-linecap="round" stroke-linejoin="round"/>
<circle cx="172" cy="257" r="76" fill="#FAFAFA"/>
<path d="M159.615 243.239C159.615 240.383 158.5 237.64 156.509 235.593C159.553 234.35 163.045 235.037 165.392 237.34L167.318 235.376C163.79 231.91 158.38 231.234 154.107 233.724C150.706 231.747 146.507 231.739 143.098 233.703C139.69 235.668 137.591 239.305 137.596 243.239V248.743H132.092C131.332 248.743 130.716 249.359 130.716 250.119V296.908C130.716 297.668 131.332 298.284 132.092 298.284H160.991V295.532H144.477V251.496H148.606V257H151.358V251.496H160.991V248.743H159.615V243.239ZM138.741 287.887C138.471 287.526 138.047 287.314 137.596 287.314C137.146 287.314 136.722 287.526 136.451 287.887L133.468 292.367V254.66L136.451 259.135C136.707 259.518 137.136 259.748 137.596 259.748C138.057 259.748 138.486 259.518 138.741 259.135L141.725 254.66V292.367L138.741 287.887ZM140.53 295.532H134.663L137.596 291.128L140.53 295.532ZM137.596 255.899L134.663 251.496H140.53L137.596 255.899ZM140.349 248.743V243.239C140.345 240.491 141.711 237.921 143.992 236.386C146.272 234.852 149.167 234.555 151.711 235.593C149.72 237.64 148.606 240.383 148.606 243.239V248.743H140.349ZM151.358 243.239C151.359 240.895 152.36 238.663 154.11 237.103C155.86 238.663 156.861 240.895 156.862 243.239V248.743H151.358V243.239Z" fill="#AC4AEB" fill-opacity="0.3"/>
<path d="M174.614 234.22C174.707 234.029 174.754 233.819 174.752 233.606V223.973H180.256V233.606C180.254 233.819 180.301 234.029 180.394 234.22L188.651 250.734L191.114 249.504L183.009 233.281V217.092C183.009 216.332 182.392 215.716 181.632 215.716H173.376C172.616 215.716 171.999 216.332 171.999 217.092V233.281L163.887 249.504C163.792 249.695 163.743 249.905 163.743 250.119V296.908C163.743 297.668 164.359 298.284 165.119 298.284H174.752V295.531H166.495V250.444L174.614 234.22ZM180.256 218.468V221.22H174.752V218.468H180.256Z" fill="#AC4AEB" fill-opacity="0.3"/>
<path d="M213.09 268.68L207.779 259.387V254.247C207.779 253.487 207.163 252.871 206.403 252.871H184.385C183.625 252.871 183.009 253.487 183.009 254.247V259.387L177.686 268.697C177.566 268.906 177.503 269.143 177.504 269.385V296.907C177.504 297.667 178.121 298.283 178.881 298.283H211.908C212.668 298.283 213.284 297.667 213.284 296.907V269.385C213.285 269.137 213.217 268.893 213.09 268.68ZM209.536 268.009H203.27L206.403 262.526L209.536 268.009ZM185.761 255.623H205.027V258.376H185.761V255.623ZM185.183 261.128H204.036L200.1 268.009H181.248L185.183 261.128ZM199.523 295.531H180.257V270.761H199.523V295.531ZM210.532 295.531H202.275V270.761H210.532V295.531Z" fill="#AC4AEB" fill-opacity="0.3"/>
</svg>
