<svg width="44" height="40" viewBox="0 0 44 40" fill="none" xmlns="http://www.w3.org/2000/svg">
<path d="M31.0545 0.788165C30.9375 0.538031 30.6399 0.430098 30.3897 0.547092C30.1396 0.664085 30.0317 0.9617 30.1487 1.21183L31.0545 0.788165ZM37.9943 15.6258L31.0545 0.788165L30.1487 1.21183L37.0885 16.0494L37.9943 15.6258Z" fill="white"/>
<path d="M13.4028 0.764372C13.5329 0.520815 13.8358 0.428868 14.0794 0.559002C14.3229 0.689136 14.4149 0.992072 14.2847 1.23563L13.4028 0.764372ZM5.47492 15.602L13.4028 0.764372L14.2847 1.23563L6.35692 16.0732L5.47492 15.602Z" fill="white"/>
<rect x="0.5" y="15.5" width="43" height="6" rx="1.5" stroke="white"/>
<path d="M22 21.7852V39.139" stroke="white" stroke-linecap="round"/>
<path d="M7.59766 29.6367H37.3677" stroke="white" stroke-linecap="round"/>
<path d="M12.9922 21.8672L15.6922 39.1399" stroke="white" stroke-linecap="round"/>
<path d="M31.0047 21.8672L28.3047 39.1399" stroke="white" stroke-linecap="round"/>
<path d="M9.67444 39.1367L4.66191 21.5H39.3677L35.1957 39.1152C35.1423 39.3407 34.9409 39.5 34.7092 39.5H10.1554C9.9319 39.5 9.73554 39.3517 9.67444 39.1367Z" stroke="white"/>
</svg>
