<svg width="18" height="18" viewBox="0 0 18 18" fill="none" xmlns="http://www.w3.org/2000/svg">
<path d="M8.99806 0.138923C5.36706 0.138923 1.91906 -0.184077 0.602059 3.19592C0.0580584 4.59192 0.137059 6.40492 0.137059 9.00093C0.137059 11.2789 0.0640585 13.4199 0.602059 14.8049C1.91606 18.1869 5.39206 17.8629 8.99606 17.8629C12.4731 17.8629 16.0581 18.2249 17.3911 14.8049C17.9361 13.3949 17.8561 11.6089 17.8561 9.00093C17.8561 5.53892 18.0471 3.30392 16.3681 1.62592C14.6681 -0.0740769 12.3691 0.138923 8.99406 0.138923H8.99806ZM8.20406 1.73592C15.7781 1.72392 16.7421 0.881925 16.2101 12.5789C16.0211 16.7159 12.8711 16.2619 8.99906 16.2619C1.93906 16.2619 1.73606 16.0599 1.73606 8.99692C1.73606 1.85192 2.29606 1.73992 8.20406 1.73392V1.73592ZM13.7281 3.20692C13.1411 3.20692 12.6651 3.68292 12.6651 4.26992C12.6651 4.85692 13.1411 5.33292 13.7281 5.33292C14.3151 5.33292 14.7911 4.85692 14.7911 4.26992C14.7911 3.68292 14.3151 3.20692 13.7281 3.20692ZM8.99806 4.44992C6.48506 4.44992 4.44806 6.48793 4.44806 9.00093C4.44806 11.5139 6.48506 13.5509 8.99806 13.5509C11.5111 13.5509 13.5471 11.5139 13.5471 9.00093C13.5471 6.48793 11.5111 4.44992 8.99806 4.44992ZM8.99806 6.04692C12.9031 6.04692 12.9081 11.9549 8.99806 11.9549C5.09406 11.9549 5.08806 6.04692 8.99806 6.04692Z" fill="white"/>
</svg>



