<svg width="26" height="10" viewBox="0 0 26 10" fill="none" xmlns="http://www.w3.org/2000/svg">
<path d="M18.5776 1.11093C18.1331 0.933149 17.422 0.755371 16.5331 0.755371C14.3109 0.755371 13.1109 1.86648 13.1109 3.46648C13.1109 4.66648 13.822 5.2887 14.7109 5.6887C15.5998 6.0887 15.8665 6.35537 15.8665 6.71093C15.8665 7.24426 15.1554 7.51093 14.5331 7.51093C13.6443 7.51093 13.1554 7.37759 12.3998 7.06648L12.0887 6.93315L11.7776 8.75537C12.3109 8.97759 13.2887 9.19982 14.3109 9.19982C16.6665 9.19982 18.222 8.08871 18.222 6.39982C18.222 5.46648 17.6443 4.75537 16.3109 4.17759C15.5109 3.77759 15.022 3.55537 15.022 3.15537C15.022 2.79982 15.422 2.44426 16.3109 2.44426C17.0665 2.44426 17.5998 2.57759 17.9998 2.75537L18.222 2.84426L18.5776 1.11093Z" fill="#293688"/>
<path d="M6.40027 6.35558L4.88916 4.84447L4.17805 6.53335L4.00027 5.42224C3.60027 4.08891 2.31138 2.62224 0.88916 1.91113L2.88916 9.02224H5.28916L6.40027 6.35558Z" fill="#051244"/>
<path d="M10.5334 9.02245L8.62228 7.06689L8.26672 9.02245H10.5334Z" fill="#051244"/>
<path d="M18.2225 9.02242H20.3114L20.7559 7.68909H23.6003L23.867 9.02242H26.0003L25.2448 5.77797L22.5781 3.2002L22.7114 3.91131C22.7114 3.91131 23.1559 5.91131 23.2448 6.35575H21.3781C21.5559 5.91131 22.267 4.0002 22.267 4.0002C22.267 4.0002 22.4448 3.51131 22.5781 3.2002" fill="#051244"/>
</svg>
