<svg width="26" height="10" viewBox="0 0 26 10" fill="none" xmlns="http://www.w3.org/2000/svg">
<path d="M8.26672 9.02197L10.0889 1.02197H11.9112L10.5334 9.02197H8.26672Z" fill="#293688"/>
<path d="M18.5776 1.11093C18.1331 0.933149 17.422 0.755371 16.5331 0.755371C14.3109 0.755371 13.1109 1.86648 13.1109 3.46648C13.1109 4.66648 13.822 5.2887 14.7109 5.6887C15.5998 6.0887 15.8665 6.35537 15.8665 6.71093C15.8665 7.24426 15.1554 7.51093 14.5331 7.51093C13.6443 7.51093 13.1554 7.37759 12.3998 7.06648L12.0887 6.93315L11.7776 8.75537C12.3109 8.97759 13.2887 9.19982 14.3109 9.19982C16.6665 9.19982 18.222 8.08871 18.222 6.39982C18.222 5.46648 17.6443 4.75537 16.3109 4.17759C15.5109 3.77759 15.022 3.55537 15.022 3.15537C15.022 2.79982 15.422 2.44426 16.3109 2.44426C17.0665 2.44426 17.5998 2.57759 17.9998 2.75537L18.222 2.84426L18.5776 1.11093Z" fill="#293688"/>
<path d="M22.9338 1.02197C22.4005 1.02197 22.0005 1.06642 21.7783 1.59975L17.9116 9.02197H20.3116L20.7561 7.68864H23.6005L23.8672 9.02197H26.0005L24.1338 1.02197H22.9338ZM21.3783 6.3553C21.5561 5.91086 22.2672 3.99975 22.2672 3.99975C22.2672 3.99975 22.4449 3.51086 22.5783 3.19975L22.7116 3.95531C22.7116 3.95531 23.1561 5.95531 23.2449 6.39975H21.3783V6.3553Z" fill="#293688"/>
<path d="M4.1783 6.62245L3.95608 5.46689C3.55608 4.13356 2.26719 2.66689 0.844971 1.95578L2.84497 9.06689H5.24497L8.84497 1.06689H6.88942L4.1783 6.62245Z" fill="#293688"/>
</svg>
