<!-- <svg width="24" height="24" viewBox="0 0 24 24" fill="none" xmlns="http://www.w3.org/2000/svg">
<path d="M24 0H0V24H24V0Z" fill="#44678D"/>
<path d="M6.16719 8.03224C6.69762 9.23233 7.36987 10.3638 8.25526 11.3796C8.37269 11.5147 8.52072 11.6349 8.67666 11.7328C8.90444 11.8761 9.11934 11.8257 9.21195 11.587C9.30991 11.3365 9.3998 10.8288 9.40515 10.5658C9.41976 9.87843 9.40296 9.42797 9.36265 8.74148C9.33652 8.30179 9.16591 7.91571 8.45997 7.79918C8.24196 7.76305 8.2217 7.59865 8.36177 7.43464C8.65335 7.0932 9.05955 7.03878 9.50004 7.01725C10.214 6.98192 10.9305 7.01075 11.6453 7.01725C11.9364 7.01969 12.2293 7.04119 12.5161 7.09845C12.8901 7.17315 13.0903 7.41351 13.152 7.74802C13.1839 7.92056 13.2003 8.09796 13.1958 8.27255C13.1772 9.02281 13.1378 9.77267 13.1285 10.5225C13.1245 10.8168 13.1479 11.1185 13.2167 11.4051C13.3128 11.8046 13.6097 11.9049 13.9133 11.6163C14.2988 11.2497 14.6387 10.8372 14.9577 10.4182C15.5374 9.65618 15.9703 8.81987 16.343 7.95758C16.5357 7.51264 16.6833 7.416 17.2057 7.4148C18.1877 7.41275 19.1697 7.41195 20.1517 7.4148C20.3259 7.4156 20.508 7.43064 20.6724 7.47856C20.9391 7.55651 21.0451 7.75585 20.9826 8.00879C20.8368 8.60154 20.4871 9.10535 20.1127 9.58971C19.5118 10.3667 18.8821 11.1251 18.2671 11.8932C18.1886 11.9911 18.1195 12.0954 18.0552 12.2014C17.8252 12.5822 17.8412 12.7957 18.1766 13.1128C18.7106 13.6174 19.2823 14.0896 19.7994 14.608C20.1752 14.9852 20.523 15.3944 20.8208 15.8251C21.1975 16.37 20.9648 16.8831 20.2612 16.9745C19.8185 17.0317 17.6561 16.9749 17.5443 16.9745C16.9629 16.972 16.4533 16.7873 16.043 16.4256C15.5865 16.0229 15.1718 15.5811 14.7335 15.1609C14.6014 15.0343 14.4605 14.9129 14.3086 14.8069C13.95 14.5564 13.5982 14.612 13.4307 14.9977C13.2876 15.329 13.1639 16.199 13.1581 16.2733C13.128 16.6618 12.8581 16.9095 12.3831 16.9334C11.0116 17.0016 9.6826 16.8616 8.44452 16.2538C7.39517 15.739 6.55722 15.0111 5.83136 14.1622C4.67832 12.8139 3.76758 11.3317 2.93609 9.80608C2.89359 9.72808 2.05142 8.08626 2.02879 8.0087C1.95356 7.74904 2.02374 7.50099 2.26321 7.4156C2.4125 7.36239 5.18918 7.41542 5.23537 7.41769C5.67843 7.43967 5.98056 7.61093 6.16719 8.03224Z" fill="white"/>
</svg> -->




<svg width="24" height="24" viewBox="0 0 24 24" fill="none" xmlns="http://www.w3.org/2000/svg">
<path d="M24 0H0V24H24V0Z" fill="#44678D"/>
<path d="M6.16719 8.03224C6.69762 9.23233 7.36987 10.3638 8.25526 11.3796C8.37269 11.5147 8.52072 11.6349 8.67666 11.7328C8.90444 11.8761 9.11934 11.8257 9.21195 11.587C9.30991 11.3365 9.3998 10.8288 9.40515 10.5658C9.41976 9.87843 9.40296 9.42797 9.36265 8.74148C9.33652 8.30179 9.16591 7.91571 8.45997 7.79918C8.24196 7.76305 8.2217 7.59865 8.36177 7.43464C8.65335 7.0932 9.05955 7.03878 9.50004 7.01725C10.214 6.98192 10.9305 7.01075 11.6453 7.01725C11.9364 7.01969 12.2293 7.04119 12.5161 7.09845C12.8901 7.17315 13.0903 7.41351 13.152 7.74802C13.1839 7.92056 13.2003 8.09796 13.1958 8.27255C13.1772 9.02281 13.1378 9.77267 13.1285 10.5225C13.1245 10.8168 13.1479 11.1185 13.2167 11.4051C13.3128 11.8046 13.6097 11.9049 13.9133 11.6163C14.2988 11.2497 14.6387 10.8372 14.9577 10.4182C15.5374 9.65618 15.9703 8.81987 16.343 7.95758C16.5357 7.51264 16.6833 7.416 17.2057 7.4148C18.1877 7.41275 19.1697 7.41195 20.1517 7.4148C20.3259 7.4156 20.508 7.43064 20.6724 7.47856C20.9391 7.55651 21.0451 7.75585 20.9826 8.00879C20.8368 8.60154 20.4871 9.10535 20.1127 9.58971C19.5118 10.3667 18.8821 11.1251 18.2671 11.8932C18.1886 11.9911 18.1195 12.0954 18.0552 12.2014C17.8252 12.5822 17.8412 12.7957 18.1766 13.1128C18.7106 13.6174 19.2823 14.0896 19.7994 14.608C20.1752 14.9852 20.523 15.3944 20.8208 15.8251C21.1975 16.37 20.9648 16.8831 20.2612 16.9745C19.8185 17.0317 17.6561 16.9749 17.5443 16.9745C16.9629 16.972 16.4533 16.7873 16.043 16.4256C15.5865 16.0229 15.1718 15.5811 14.7335 15.1609C14.6014 15.0343 14.4605 14.9129 14.3086 14.8069C13.95 14.5564 13.5982 14.612 13.4307 14.9977C13.2876 15.329 13.1639 16.199 13.1581 16.2733C13.128 16.6618 12.8581 16.9095 12.3831 16.9334C11.0116 17.0016 9.6826 16.8616 8.44452 16.2538C7.39517 15.739 6.55722 15.0111 5.83136 14.1622C4.67832 12.8139 3.76758 11.3317 2.93609 9.80608C2.89359 9.72808 2.05142 8.08626 2.02879 8.0087C1.95356 7.74904 2.02374 7.50099 2.26321 7.4156C2.4125 7.36239 5.18918 7.41542 5.23537 7.41769C5.67843 7.43967 5.98056 7.61093 6.16719 8.03224Z" fill="white"/>
</svg>

